<svg width="27" height="26" viewBox="0 0 27 26" fill="none" xmlns="http://www.w3.org/2000/svg">
<g id="Instagram">
<path id="Vector" d="M22.1542 26H4.84579C2.45401 26 0.5 24.046 0.5 21.6542V4.34579C0.5 1.954 2.45401 0 4.84579 0H22.1542C24.546 0 26.5 1.954 26.5 4.34579V21.6542C26.5 24.0567 24.5567 26 22.1542 26Z" fill="white"/>
<path id="Vector_2" d="M13.5055 19.6781C11.7224 19.6781 10.046 18.984 8.78603 17.7241C7.52608 16.4641 6.83203 14.7877 6.83203 13.0046C6.83203 11.2214 7.52608 9.54502 8.78603 8.28506C10.046 7.0251 11.7224 6.33105 13.5055 6.33105C15.2887 6.33105 16.9651 7.0251 18.225 8.28506C19.485 9.54502 20.1791 11.2214 20.1791 13.0046C20.1791 14.7877 19.485 16.4641 18.225 17.7241C16.9544 18.984 15.2887 19.6781 13.5055 19.6781ZM13.5055 7.75118C10.6119 7.75118 8.25215 10.1003 8.25215 13.0046C8.25215 15.8982 10.6012 18.258 13.5055 18.258C16.3992 18.258 18.7589 15.9089 18.7589 13.0046C18.7483 10.1109 16.3992 7.75118 13.5055 7.75118Z" fill="black"/>
<path id="Vector_3" d="M21.4806 6.1125C22.1882 6.1125 22.7619 5.53882 22.7619 4.83115C22.7619 4.12348 22.1882 3.5498 21.4806 3.5498C20.7729 3.5498 20.1992 4.12348 20.1992 4.83115C20.1992 5.53882 20.7729 6.1125 21.4806 6.1125Z" fill="black"/>
</g>
</svg>
