<svg xmlns="http://www.w3.org/2000/svg" viewBox="0 0 45 39"><defs><style>.a{stroke:#000;stroke-miterlimit:10;}</style></defs><title>icon_dot_down</title><path class="a" d="M44.8,4.4a43.2,43.2,0,0,0-10.2,9.4c-2.1,2.9-3.2,5.7-3.2,8.4,0,.9.3,1.3,1,1.3l2.7-.3a9.3,9.3,0,0,1,6.3,2.2,6.6,6.6,0,0,1,2.4,5.5,7.3,7.3,0,0,1-2.6,5.7,8.1,8.1,0,0,1-6,2.3,9.7,9.7,0,0,1-7.7-3.4c-2-2.3-3-5.5-3-9.5a23.3,23.3,0,0,1,4.1-13.1c2.9-4.2,7.2-8.3,13-12.3Zm-24,0A36.2,36.2,0,0,0,11,13.1c-2.5,3.4-3.8,6.4-3.8,9.1,0,.9.4,1.3,1,1.3l2.7-.3a9.1,9.1,0,0,1,6.3,2.2,6.6,6.6,0,0,1,2.4,5.5,7.2,7.2,0,0,1-2.5,5.7,8.5,8.5,0,0,1-6,2.3,9.7,9.7,0,0,1-7.7-3.4C1.5,33.2.5,30,.5,26A23.3,23.3,0,0,1,4.6,12.9Q8.8,6.6,17.5.6Z"/></svg>