<svg width="28" height="28" viewBox="0 0 28 28" fill="none" xmlns="http://www.w3.org/2000/svg">
<path id="Vector" d="M13.2516 27.9956L14.597 28C22.1182 27.6836 28 21.5476 28 14.0033C28 6.459 22.1182 0.320753 14.5948 0.0043939L13.2626 0C13.2626 0 13.2538 0.00659084 13.2494 0.00878778C5.81596 0.40204 0 6.53809 0 14.0011C0 21.4641 5.81596 27.6002 13.2516 27.9956ZM4.79762 23.0613C5.68428 22.4154 6.64775 21.8617 7.6617 21.4136C8.62518 23.4282 9.96394 25.2077 11.6473 26.7126C9.06192 26.2315 6.65872 24.9528 4.79762 23.0613ZM13.4601 26.8005C11.4124 25.2604 9.76203 23.2656 8.66907 21.0093C10.2054 20.4513 11.8141 20.1306 13.4601 20.0559V26.8005ZM13.4601 18.9728C11.6604 19.0497 9.90469 19.4012 8.23232 20.0163C7.59367 18.4257 7.21837 16.7429 7.11522 15.0051H13.4623V18.9728H13.4601ZM13.4601 13.9176L7.08011 13.922C7.08888 12.1425 7.38078 10.3981 7.9514 8.73723C9.70936 9.42927 11.5617 9.82252 13.4601 9.906V13.9176ZM16.1706 26.7455C17.9329 25.1813 19.3178 23.3249 20.29 21.218C21.3808 21.6618 22.4145 22.222 23.3714 22.8921C21.4422 24.9287 18.9139 26.2798 16.1706 26.7455ZM24.0868 22.0727C23.04 21.3301 21.9053 20.7084 20.707 20.2206C21.3479 18.5597 21.7232 16.8044 21.8241 14.9963H26.8763C26.6788 17.5931 25.7175 20.0339 24.0847 22.0727H24.0868ZM24.4907 6.46559C26.0621 8.64935 26.9005 11.2176 26.918 13.911H21.857C21.8483 12.0678 21.5498 10.2553 20.9704 8.52193C22.217 7.98148 23.3999 7.29164 24.4885 6.46559H24.4907ZM23.8235 5.61318C22.8227 6.36893 21.7385 7.00384 20.5973 7.50255C19.6316 5.12986 18.1107 2.98564 16.1684 1.25665C19.1488 1.76195 21.8395 3.28882 23.8213 5.61318H23.8235ZM14.5421 1.31597C16.7982 3.05155 18.5364 5.31879 19.5899 7.90239C17.9658 8.48458 16.2715 8.79655 14.5421 8.8317V1.31597ZM14.5421 9.91699C16.3944 9.87964 18.216 9.5457 19.963 8.91738C20.4941 10.5255 20.7663 12.204 20.775 13.911L14.5421 13.9154V9.91699ZM14.5421 14.9985H20.7399C20.6412 16.6704 20.2878 18.3005 19.6909 19.8428C18.0339 19.2891 16.3044 18.9925 14.5421 18.9574V14.9985ZM14.5421 20.0383C16.1574 20.0712 17.7442 20.3415 19.2673 20.8402C18.2007 23.1074 16.5766 25.1176 14.5421 26.684V20.0383ZM13.4601 1.20392V8.82071C11.6978 8.73943 9.97711 8.37034 8.33986 7.72444C9.42405 5.15841 11.1886 2.91314 13.4601 1.20392ZM11.6495 1.2918C9.78617 2.96147 8.30914 5.02001 7.34786 7.29384C6.28343 6.78635 5.27606 6.16022 4.34551 5.42864C6.26587 3.26246 8.83367 1.81248 11.6495 1.2918ZM3.65857 6.26787C4.6791 7.07195 5.78523 7.7574 6.95281 8.30663C6.32732 10.1037 6.0047 11.9909 5.99592 13.922H1.08418C1.09955 11.1385 1.9884 8.49776 3.65857 6.26787ZM1.12369 15.0073H6.02884C6.13419 16.8835 6.53582 18.7025 7.22496 20.4228C6.10346 20.9193 5.04342 21.5344 4.06678 22.255C2.34394 20.1833 1.32999 17.6854 1.12369 15.0095V15.0073Z" fill="black"/>
</svg>
