<svg width="45" height="39" viewBox="0 0 45 39" fill="none" xmlns="http://www.w3.org/2000/svg">
<path d="M10 16.125C7.33333 16.125 5.16667 15.4583 3.5 14.125C1.83333 12.7083 1 10.8333 1 8.5C1 6.33333 1.83333 4.5 3.5 3C5.16667 1.41667 7.20833 0.625 9.625 0.625C12.7917 0.625 15.3333 1.83333 17.25 4.25C19.25 6.58333 20.25 9.70833 20.25 13.625C20.25 18.2083 18.875 22.5833 16.125 26.75C13.375 30.8333 9.04167 34.875 3.125 38.875L0.125 35.125C8.95833 28.5417 13.375 22.625 13.375 17.375C13.375 16.5417 13.0833 16.125 12.5 16.125H10ZM34 16.125C31.3333 16.125 29.1667 15.4583 27.5 14.125C25.8333 12.7083 25 10.8333 25 8.5C25 6.33333 25.8333 4.5 27.5 3C29.1667 1.41667 31.2083 0.625 33.625 0.625C36.875 0.625 39.4583 1.83333 41.375 4.25C43.375 6.58333 44.375 9.70833 44.375 13.625C44.375 22.5417 38.6667 30.9583 27.25 38.875L24.25 35.125C33.0833 28.625 37.5 22.7083 37.5 17.375C37.5 16.5417 37.1667 16.125 36.5 16.125H34Z" fill="white"/>
</svg>
