<svg xmlns="http://www.w3.org/2000/svg" viewBox="0 0 44.3 38.3"><defs><style>.a{fill:#333;}</style></defs><title>icon_dot_top_b</title><path class="a" d="M10,16.1a9.7,9.7,0,0,1-6.5-2A6.9,6.9,0,0,1,1,8.5,7,7,0,0,1,3.5,3,8.5,8.5,0,0,1,9.6.6a9.2,9.2,0,0,1,7.6,3.6,14.1,14.1,0,0,1,3,9.4,23.3,23.3,0,0,1-4.1,13.2c-2.7,4-7.1,8.1-13,12.1l-3-3.8C9,28.5,13.4,22.6,13.4,17.4c0-.9-.3-1.3-.9-1.3Zm24,0a9.7,9.7,0,0,1-6.5-2A6.9,6.9,0,0,1,25,8.5,7,7,0,0,1,27.5,3,8.5,8.5,0,0,1,33.6.6a9.4,9.4,0,0,1,7.8,3.6,14.1,14.1,0,0,1,3,9.4c0,8.9-5.7,17.4-17.2,25.3l-3-3.8c8.9-6.5,13.3-12.4,13.3-17.7,0-.9-.3-1.3-1-1.3Z" transform="translate(-0.1 -0.6)"/></svg>