<svg width="45" height="39" viewBox="0 0 45 39" fill="none" xmlns="http://www.w3.org/2000/svg">
<path d="M44.75 4.375C40.1667 7.625 36.7917 10.75 34.625 13.75C32.4583 16.6667 31.375 19.5 31.375 22.25C31.375 23.0833 31.7083 23.5 32.375 23.5L35.125 23.25C37.7083 23.25 39.7917 23.9583 41.375 25.375C42.9583 26.7083 43.75 28.5417 43.75 30.875C43.75 33.2083 42.9167 35.125 41.25 36.625C39.6667 38.125 37.6667 38.875 35.25 38.875C32.0833 38.875 29.5 37.75 27.5 35.5C25.5 33.1667 24.5 30 24.5 26C24.5 21.3333 25.875 16.9583 28.625 12.875C31.4583 8.70833 35.7917 4.625 41.625 0.625L44.75 4.375ZM20.75 4.375C16.75 6.875 13.5 9.79167 11 13.125C8.5 16.4583 7.25 19.5 7.25 22.25C7.25 23.0833 7.58333 23.5 8.25 23.5L10.875 23.25C13.5417 23.25 15.6667 23.9583 17.25 25.375C18.8333 26.7083 19.625 28.5417 19.625 30.875C19.625 33.2083 18.7917 35.125 17.125 36.625C15.5417 38.125 13.5417 38.875 11.125 38.875C7.95833 38.875 5.375 37.75 3.375 35.5C1.45833 33.1667 0.5 30 0.5 26C0.5 21.3333 1.875 16.9583 4.625 12.875C7.375 8.70833 11.6667 4.625 17.5 0.625L20.75 4.375Z" fill="white"/>
</svg>
