<svg width="68" height="68" viewBox="0 0 68 68" fill="none" xmlns="http://www.w3.org/2000/svg">
<g filter="url(#filter0_d_785_4255)">
<rect x="11" y="11" width="46" height="46" rx="23" fill="#5E5E5E"/>
<path d="M24.7188 21.8623L47.0103 44.8293" stroke="white" stroke-width="2" stroke-linecap="round" stroke-linejoin="round"/>
<path d="M38.9832 23.7999V34.7564L40.6332 36.4564V22.0999C40.6332 21.7769 40.4599 21.4794 40.1794 21.3434C39.8989 21.1989 39.5689 21.2329 39.3132 21.4199L31.7314 27.2764L32.9112 28.4919L38.9832 23.7999Z" fill="white"/>
<path d="M38.9834 44.2L30.0404 37.2895C29.9001 37.179 29.7269 37.1195 29.5454 37.1195H25.2389V30.889H29.5454C29.7269 30.889 29.9001 30.8295 30.0404 30.719L30.9149 30.0475L29.7351 28.832L29.2731 29.189H24.4139C23.9601 29.189 23.5889 29.5715 23.5889 30.039V37.9695C23.5889 38.437 23.9601 38.8195 24.4139 38.8195H29.2731L39.3216 46.58C39.4701 46.6905 39.6434 46.75 39.8166 46.75C39.9404 46.75 40.0724 46.7245 40.1879 46.6565C40.4684 46.512 40.6416 46.2145 40.6416 45.9V40.0605L38.9916 38.3605V44.2H38.9834Z" fill="white"/>
</g>
<defs>
<filter id="filter0_d_785_4255" x="0" y="0" width="68" height="68" filterUnits="userSpaceOnUse" color-interpolation-filters="sRGB">
<feFlood flood-opacity="0" result="BackgroundImageFix"/>
<feColorMatrix in="SourceAlpha" type="matrix" values="0 0 0 0 0 0 0 0 0 0 0 0 0 0 0 0 0 0 127 0" result="hardAlpha"/>
<feOffset/>
<feGaussianBlur stdDeviation="5.5"/>
<feComposite in2="hardAlpha" operator="out"/>
<feColorMatrix type="matrix" values="0 0 0 0 0 0 0 0 0 0 0 0 0 0 0 0 0 0 0.3 0"/>
<feBlend mode="normal" in2="BackgroundImageFix" result="effect1_dropShadow_785_4255"/>
<feBlend mode="normal" in="SourceGraphic" in2="effect1_dropShadow_785_4255" result="shape"/>
</filter>
</defs>
</svg>
