<svg width="244" height="78" viewBox="0 0 244 78" fill="none" xmlns="http://www.w3.org/2000/svg">
<path d="M161.14 38.4988C161.14 38.4988 161.14 38.4731 161.13 38.432C161.109 38.3291 161.038 38.1286 160.827 38.0412C160.54 37.9281 160.411 38.0258 160.309 38.2674C160.206 38.504 158.563 43.7489 154.564 43.8517C154.528 43.8517 154.497 43.8517 154.461 43.8517H154.451C154.415 43.8517 154.384 43.8569 154.348 43.862C154.235 43.862 154.143 43.8671 154.02 43.8671H150.395C147.418 43.8363 146.468 43.3992 146.468 40.1186V29.5876H151.792C154.292 29.5876 155.18 30.0298 155.734 31.2691C155.95 31.7524 156.145 32.1792 156.294 32.7911C156.294 32.8117 156.366 33.1151 156.386 33.2591C156.422 33.4956 156.633 33.511 156.807 33.4853C156.925 33.4699 156.987 33.4236 157.023 33.3928C157.069 33.3413 157.115 33.2488 157.131 33.1048C157.136 33.0174 157.141 32.93 157.141 32.8631C157.141 32.7963 157.141 32.7551 157.141 32.7551V24.7129C157.146 24.5484 157.085 24.4558 157.018 24.3941C156.997 24.3787 156.977 24.3633 156.951 24.353C156.895 24.3273 156.843 24.317 156.797 24.3067C156.787 24.3067 156.771 24.3067 156.761 24.3067C156.735 24.3067 156.71 24.3067 156.689 24.3067H156.684C156.684 24.3067 156.653 24.3067 156.638 24.3067C156.433 24.3376 156.397 24.5381 156.397 24.5381L156.361 24.7181L156.35 24.7644L156.34 24.8209C156.191 25.5254 156.032 25.9933 155.796 26.5178C155.257 27.7725 154.338 28.1993 151.766 28.1993H146.478V16.9484C146.478 15.8635 146.642 15.6886 147.787 15.6886H152.105C152.105 15.6886 152.592 15.6732 153.244 15.704C153.28 15.704 153.316 15.704 153.352 15.7092H153.368C153.973 15.7452 154.692 15.8223 155.303 15.9971C155.503 16.0537 155.693 16.1206 155.863 16.1977C155.996 16.2645 156.145 16.3571 156.309 16.4805C156.92 16.9381 157.711 17.8123 158.389 19.504V19.5195C158.44 19.6274 158.481 19.7354 158.522 19.8486L158.943 20.9541C159.035 21.1803 159.112 21.35 159.2 21.4477C159.236 21.4889 159.272 21.5146 159.307 21.5249C159.384 21.5506 159.477 21.5249 159.503 21.5094C159.713 21.4272 159.78 21.2266 159.805 21.1238C159.805 21.1032 159.816 21.0826 159.816 21.0569C159.826 20.8872 159.805 20.7381 159.805 20.7278C159.805 20.7278 159.184 16.2954 159.164 16.172C158.922 14.7425 157.747 14.5471 157.233 14.4854C156.545 14.4031 153.809 14.3208 153.239 14.3105H138.279C138.218 14.3105 138.141 14.3105 138.064 14.3208C137.92 14.3363 137.833 14.3825 137.776 14.4288C137.715 14.4802 137.689 14.5882 137.684 14.6448C137.658 14.8248 137.674 15.0304 137.91 15.0716C137.946 15.0767 137.997 15.087 138.038 15.0921L138.095 15.1024C138.829 15.2156 139.388 15.3441 139.825 15.5292C141.129 16.0691 141.231 17.1284 141.231 20.0645V39.5735C141.231 43.5432 140.923 43.9391 137.032 44.4739C136.755 44.5253 136.796 44.8287 136.842 45.0138C136.862 45.0807 136.95 45.1938 137.201 45.2195C137.268 45.2195 137.335 45.2246 137.396 45.2298H152.166L153.855 45.2452C154.081 45.2452 154.323 45.2452 154.569 45.2401C156.089 45.2195 157.921 45.1424 158.84 44.8956C158.881 44.8853 158.917 44.8698 158.964 44.8596C159.061 44.8287 159.148 44.7927 159.215 44.7567C159.236 44.7464 159.251 44.7362 159.272 44.7259C159.287 44.7156 159.307 44.7104 159.323 44.7002C159.333 44.695 159.323 44.6899 159.333 44.6796C159.441 44.6127 159.549 44.5408 159.662 44.4276C159.708 44.3865 159.759 44.3248 159.805 44.2528C160.432 43.2912 161.007 39.7021 161.022 39.6095C161.063 39.3164 161.104 39.049 161.135 38.8331C161.135 38.8331 161.156 38.6685 161.145 38.4988H161.14Z" fill="black"/>
<path d="M70.9078 44.4788C70.9078 44.4788 70.8616 44.4685 70.8359 44.4685L70.7692 44.4583L70.7127 44.448C70.2507 44.376 69.8605 44.2988 69.5217 44.2063H69.496C69.496 44.2063 69.4498 44.1857 69.4241 44.1806C69.3831 44.1703 69.3471 44.16 69.3112 44.1446C69.2855 44.1343 69.2598 44.1292 69.2342 44.1189C69.1931 44.1034 69.1572 44.0932 69.1212 44.0777C69.1058 44.0726 69.0904 44.0675 69.075 44.0623C68.9262 44.0058 68.7978 43.944 68.69 43.8875C68.5873 43.8361 68.4949 43.7795 68.4076 43.7178C68.3974 43.7126 68.3871 43.7024 68.3768 43.6972L68.3666 43.6869C68.2639 43.615 68.2177 43.5635 68.2177 43.5635C67.5195 42.9208 67.4065 41.7947 67.4065 39.4653V20.1157C67.4065 16.9739 67.5862 15.9558 69.1726 15.4313C69.5679 15.2976 70.0505 15.1948 70.646 15.1022L70.7024 15.0919C70.7435 15.0868 70.7949 15.0765 70.8308 15.0713C71.0978 15.0302 71.0824 14.768 71.0413 14.5828C71.031 14.5211 71.0002 14.4749 70.9848 14.4543C70.9335 14.3977 70.8411 14.3412 70.6716 14.3206C70.5946 14.3155 70.5176 14.3103 70.456 14.3103H59.6083C59.6083 14.3103 59.5621 14.3103 59.5005 14.3103C59.4337 14.3103 59.3464 14.3103 59.2592 14.3206C59.1052 14.336 59.0127 14.3874 58.9614 14.4389C58.9152 14.4851 58.8947 14.5623 58.8844 14.6034C58.8485 14.7885 58.8485 15.0251 59.1 15.0662C59.136 15.0713 59.1873 15.0816 59.2284 15.0868L59.2848 15.0971C59.7315 15.169 60.1165 15.241 60.4451 15.3336C60.4451 15.3336 61.0303 15.457 61.5027 15.7964C61.5027 15.7964 61.5283 15.8169 61.5437 15.8272C61.554 15.8375 61.5643 15.8427 61.5745 15.8529C62.3908 16.4906 62.5243 17.6372 62.5243 20.1106V27.7671H48.5295V20.1106C48.5295 17.1539 48.7194 16.1049 50.0132 15.5547C50.4547 15.349 51.0399 15.2153 51.81 15.0971L51.8665 15.0868C51.9075 15.0816 51.9589 15.0713 51.9948 15.0662C52.1899 15.0353 52.2361 14.8862 52.231 14.7371C52.231 14.7114 52.231 14.6857 52.2258 14.6651V14.6291C52.2258 14.6291 52.2104 14.5828 52.2053 14.5623C52.195 14.5263 52.1848 14.5006 52.1796 14.4851C52.1437 14.4183 52.0513 14.336 51.8408 14.3155C51.7638 14.3103 51.6868 14.3052 51.6252 14.3052H40.6183C40.5516 14.3052 40.4745 14.3052 40.3924 14.3155C40.3 14.3257 40.2281 14.3463 40.1768 14.3772C40.1768 14.3772 40.1511 14.3926 40.1408 14.4029C40.069 14.4543 40.0382 14.5417 40.0228 14.6086C39.9868 14.7937 39.9868 15.0302 40.2435 15.0713C40.2795 15.0765 40.3308 15.0868 40.3719 15.0919L40.4283 15.1022C41.0444 15.1999 41.5372 15.3027 41.9377 15.4467C41.9377 15.4467 42.333 15.5753 42.5537 15.7347C42.5589 15.7347 42.564 15.745 42.5691 15.745C43.5189 16.3312 43.6678 17.4264 43.6678 20.1209V39.4653C43.6678 42.3346 43.5138 43.4298 42.2919 43.9903C41.8504 44.196 41.2651 44.3246 40.4951 44.448L40.4386 44.4583C40.3975 44.4634 40.3462 44.4737 40.3103 44.4788C40.0176 44.5251 40.0638 44.8336 40.11 45.0187C40.1306 45.0856 40.2179 45.1987 40.4694 45.2244C40.5567 45.2296 40.644 45.2347 40.7107 45.2347C40.7774 45.2347 40.8185 45.2347 40.8185 45.2347H51.5122C51.5122 45.2347 51.5585 45.2347 51.6201 45.2347C51.6868 45.2347 51.7741 45.2347 51.8613 45.2244C52.1129 45.1987 52.195 45.0804 52.2207 45.0187C52.2669 44.8388 52.308 44.5457 52.041 44.484C51.9692 44.4737 51.9024 44.4583 51.8357 44.448H51.8305C51.2864 44.3606 50.8397 44.268 50.4649 44.1549C50.4495 44.1549 50.4393 44.1497 50.4239 44.1446H50.4085C50.4085 44.1446 50.3674 44.124 50.352 44.1189C50.3161 44.1086 50.2801 44.0932 50.2442 44.0829C50.2185 44.0726 50.198 44.0623 50.1723 44.0572C50.1261 44.0366 50.0799 44.0212 50.0388 44.0006H50.0337C49.854 43.9183 49.7103 43.8361 49.5973 43.7589H49.5922C49.3817 43.615 49.2944 43.507 49.2944 43.507C48.6527 42.8436 48.5398 41.7072 48.5398 39.4756V29.2429H62.5345V39.4756C62.5345 42.3449 62.4113 43.4247 61.1073 44.0006C61.0047 44.0469 60.8969 44.0932 60.7788 44.1292C60.5426 44.2114 60.2808 44.2783 59.9779 44.34C59.829 44.3708 59.6699 44.4017 59.5005 44.4274C59.3721 44.448 59.2438 44.4737 59.1052 44.4942C58.8382 44.5508 58.8793 44.849 58.9255 45.029C58.946 45.0959 59.0333 45.209 59.2848 45.2347C59.3721 45.2398 59.4594 45.245 59.5261 45.245C59.5467 45.245 59.5569 45.245 59.5723 45.245H70.5176C70.5792 45.245 70.6614 45.245 70.7435 45.2347C70.9951 45.209 71.0772 45.0907 71.1029 45.029C71.1491 44.8439 71.1953 44.5405 70.9129 44.4891L70.9078 44.4788Z" fill="black"/>
<path d="M135.322 44.2939C135.322 44.2939 135.312 44.2682 135.302 44.2579C135.25 44.2013 135.086 44.1654 134.521 44.1448C133.823 44.1139 133.315 43.862 133.315 43.862C132.73 43.6203 132.262 43.2912 132.262 43.2912C131.693 42.885 131.066 42.1394 130.625 41.5532L130.378 41.2035C130.224 40.9978 130.07 40.7767 129.911 40.5402L129.87 40.4836C129.413 39.7997 128.884 38.9307 127.96 37.4704C126.6 35.3313 124.197 31.2228 123.417 29.819C126.174 28.6363 129.464 26.2967 129.464 21.8076C129.464 19.3292 128.371 17.3135 126.6 16.1102C124.736 14.7784 122.293 14.3208 118.632 14.3208H107.132C107.071 14.3208 106.989 14.3208 106.912 14.3311C106.66 14.3568 106.578 14.4751 106.552 14.5368C106.506 14.7219 106.46 15.0304 106.752 15.0767L106.881 15.0973L106.937 15.1075C107.338 15.1692 107.682 15.2361 107.99 15.3132H108C108.631 15.4623 109.063 15.6937 109.36 15.9303C109.376 15.9457 109.391 15.956 109.412 15.9714C109.55 16.0897 109.658 16.2131 109.74 16.3262C109.74 16.3262 110.095 16.6964 110.172 17.658C110.172 17.6683 110.172 17.6734 110.172 17.6837C110.249 18.2699 110.269 19.0052 110.269 19.9359V39.5529C110.269 41.9748 110.141 43.0392 109.232 43.6563C109.232 43.6563 109.176 43.6923 109.083 43.7488C109.073 43.754 109.058 43.7643 109.042 43.7746C108.78 43.9237 108.257 44.1756 107.558 44.3042C107.322 44.3556 107.061 44.4019 106.773 44.4482L106.717 44.4584C106.675 44.4636 106.624 44.4739 106.588 44.479C106.316 44.5202 106.337 44.7927 106.378 44.9829C106.388 45.0189 106.409 45.0704 106.444 45.1115C106.455 45.1218 106.465 45.1269 106.475 45.1372H106.48C106.537 45.1835 106.619 45.2143 106.742 45.2298C106.829 45.2349 108.57 45.24 108.57 45.24H118.396C118.396 45.24 118.442 45.24 118.504 45.24C118.571 45.24 118.658 45.24 118.745 45.2298C118.863 45.2143 118.945 45.1835 119.002 45.1475L119.012 45.1372C119.012 45.1372 119.022 45.1321 119.027 45.1269C119.089 45.0704 119.115 44.9881 119.115 44.9881C119.156 44.7978 119.181 44.5253 118.904 44.4842C118.868 44.479 118.817 44.4687 118.776 44.4636L118.719 44.4533C118.396 44.4019 118.108 44.3505 117.847 44.2888H117.826C117.826 44.2888 117.79 44.2785 117.775 44.2733C117.729 44.2631 117.682 44.2528 117.636 44.2373C117.092 44.1036 116.686 43.9134 116.425 43.7488C116.409 43.7386 116.394 43.7283 116.378 43.718C116.332 43.6871 116.286 43.6614 116.245 43.6306C116.219 43.6152 116.199 43.5997 116.178 43.5843C116.091 43.5175 116.045 43.4712 116.045 43.4712C115.321 42.813 115.218 41.7229 115.218 39.5529V30.9502H116.378C118.278 30.9502 118.92 31.4233 120.034 33.4544C121.605 36.37 123.355 39.4347 124.988 41.8668C126.312 43.826 127.406 44.7927 130.178 45.24C131.749 45.4817 133.145 45.3017 134.07 45.1012C134.444 45.0138 134.763 44.9058 134.968 44.8338C135.03 44.8081 135.297 44.7001 135.312 44.5819C135.327 44.4687 135.332 44.371 135.312 44.2939H135.322ZM121.923 28.7032C121.168 29.3562 120.285 29.6647 119.161 29.7984C118.817 29.8396 118.458 29.8653 118.067 29.8807C117.688 29.8961 117.287 29.9013 116.861 29.9013H115.228V17.4986C115.228 16.3468 115.403 15.9817 115.767 15.7297C115.85 15.668 115.952 15.6166 116.086 15.5703C116.286 15.5035 116.548 15.4521 116.876 15.4161C117.205 15.3801 117.605 15.3646 118.078 15.3646C121.25 15.3646 124.038 17.478 124.038 22.8772C124.038 25.6693 123.453 27.4331 121.923 28.7032Z" fill="black"/>
<path d="M104.262 44.4688C104.226 44.4636 104.175 44.4534 104.134 44.4482L104.077 44.4379C103.846 44.4019 103.636 44.3659 103.441 44.3248C103.415 44.3248 103.394 44.3145 103.369 44.3094C103.204 44.2734 103.05 44.2374 102.907 44.2014C102.583 44.1088 102.321 43.9957 102.219 43.9494C100.935 43.3684 100.345 42.2988 99.2154 39.1725C96.2378 31.1251 93.3167 23.1498 90.4931 15.1179C90.4931 15.1179 90.3237 14.6757 90.3031 14.6345C90.2159 14.4648 90.0516 14.3826 89.877 14.3414H89.8514C89.7795 14.3209 89.6409 14.3054 89.4201 14.3106C89.0916 14.3106 88.7425 14.5111 88.5474 14.9122C88.5371 14.9379 88.5268 14.9585 88.5166 14.979C88.5166 14.9893 88.5063 15.0047 88.5012 15.015C88.4755 15.0767 88.4601 15.1179 88.4601 15.1179L79.0858 39.1879C77.9255 42.1497 77.2324 43.317 75.9593 43.9289C75.836 43.9957 75.6974 44.0523 75.5486 44.1037C75.3997 44.1551 75.2354 44.2065 75.066 44.2528H75.0506C74.7887 44.3248 74.4961 44.3865 74.1676 44.4379L74.1111 44.4482C74.07 44.4534 74.0187 44.4636 73.9827 44.4688C73.7106 44.5099 73.7312 44.7824 73.7722 44.9727C73.7825 45.0138 73.8082 45.0653 73.8544 45.1115H73.8647C73.8647 45.1115 73.8801 45.1321 73.8903 45.1373C73.9468 45.1732 74.0238 45.2041 74.1419 45.2195C74.2292 45.2247 74.3164 45.2298 74.3832 45.2298C74.4499 45.2298 74.491 45.2298 74.491 45.2298H83.0285C83.0285 45.2298 83.0747 45.2298 83.1363 45.2298C83.2031 45.2298 83.2903 45.2298 83.3776 45.2195C83.6292 45.1938 83.7113 45.0755 83.737 45.0138C83.7832 44.8287 83.8294 44.5202 83.5368 44.4739C83.5008 44.4688 83.4495 44.4585 83.4084 44.4534L83.352 44.4431C83.0491 44.3968 82.7821 44.3454 82.5305 44.294C81.1393 44.0266 80.6054 43.5278 80.6054 43.5278C79.8404 42.9416 79.938 42.0314 80.554 40.1957C81.1752 38.2829 81.9812 36.0461 82.8745 33.5573H91.8638C93.0087 36.6683 93.9533 39.4913 94.5385 41.2293C94.9698 42.4942 95.0571 43.1884 94.4872 43.6666H94.4769L94.4513 43.6923C94.3794 43.7489 94.3024 43.8003 94.21 43.8517L94.1946 43.862C94.1432 43.8929 94.0816 43.9237 94.0149 43.9597C93.8455 44.042 93.6504 44.1191 93.4296 44.1963C93.1319 44.2991 92.7879 44.3865 92.4029 44.4482L92.3464 44.4585C92.3053 44.4636 92.254 44.4739 92.2181 44.4791C91.9665 44.5202 91.9665 44.7465 91.9973 44.9316C92.0076 44.9778 92.0332 45.0653 92.0948 45.1218C92.1513 45.1681 92.2386 45.2092 92.3772 45.2247C92.4645 45.2298 92.5518 45.235 92.6185 45.235H103.774C103.774 45.235 104.082 45.2452 104.241 45.199H104.257C104.283 45.1835 104.308 45.1732 104.329 45.163C104.344 45.1578 104.354 45.1475 104.365 45.1424H104.375C104.457 45.0807 104.483 44.9933 104.493 44.9573C104.534 44.7722 104.544 44.5151 104.277 44.4739L104.262 44.4688ZM83.4033 32.0815C84.2658 29.7882 85.0615 27.5411 85.8983 25.2066C86.1499 24.5073 86.4066 23.7977 86.6684 23.0778C86.9302 22.3579 87.2023 21.6277 87.4795 20.8821L91.335 32.0815H83.4033Z" fill="black"/>
<path d="M208.925 13.7554C199.525 13.7554 193.908 21.9004 193.908 30.1997C193.908 39.0132 200.207 46.0475 208.709 46.0475C217.211 46.0475 223.505 39.4966 223.505 29.5415C223.505 20.2961 216.8 13.7554 208.925 13.7554ZM209.556 44.8957C203.334 44.8957 199.478 38.0516 199.478 29.0067C199.478 19.9618 203.308 14.8969 208.031 14.8969C213.935 14.8969 217.924 20.8103 217.924 30.8682C217.924 40.0776 214.366 44.9009 209.551 44.9009L209.556 44.8957Z" fill="black"/>
<path d="M228.675 38.7869C226.288 38.3755 224.265 40.5403 224.902 42.9108C225.241 44.1603 226.324 45.1373 227.602 45.3122C229.882 45.6155 231.781 43.6256 231.304 41.3425C231.037 40.0518 229.964 39.0131 228.67 38.792L228.675 38.7869ZM228.013 44.5923C226.56 44.5357 225.487 43.3376 225.533 41.9647C225.579 40.4889 226.837 39.3885 228.28 39.4862C229.64 39.5788 230.724 40.8128 230.631 42.1909C230.539 43.5947 229.363 44.6231 228.018 44.5923H228.013Z" fill="black"/>
<path d="M229.44 42.7307C229.383 42.3142 229.255 42.16 228.839 42.0468C228.916 42.016 228.978 41.9954 229.034 41.9748C229.681 41.7229 229.665 40.8487 229.28 40.5351C229.121 40.4065 228.942 40.3242 228.747 40.3037C228.505 40.278 228.259 40.2677 228.017 40.2625C227.648 40.2574 227.278 40.2625 226.909 40.2625C226.832 40.2625 226.801 40.2831 226.801 40.3551C226.801 40.3808 226.801 40.4271 226.801 40.4579C226.801 41.5326 226.801 42.6125 226.801 43.6872C226.801 43.8106 226.842 43.8363 226.965 43.8208C227.119 43.8054 227.273 43.8054 227.427 43.8208C227.54 43.8311 227.576 43.8106 227.576 43.7077C227.576 43.3066 227.576 42.9107 227.576 42.5096C227.576 42.4479 227.627 42.3965 227.689 42.3965C227.874 42.4016 228.064 42.4068 228.249 42.3965C228.5 42.3862 228.644 42.4068 228.705 42.7873C228.711 42.8284 228.788 43.4558 228.824 43.7231C228.834 43.8003 228.87 43.826 228.947 43.8208C229.132 43.8157 229.321 43.8208 229.506 43.8208H229.542C229.599 43.8208 229.64 43.7643 229.619 43.7129C229.599 43.6563 229.588 43.6254 229.573 43.5432C229.527 43.2758 229.491 43.0084 229.455 42.741L229.44 42.7307ZM228.397 41.764C228.141 41.7949 227.879 41.7846 227.622 41.7897C227.602 41.7897 227.566 41.7383 227.566 41.7075C227.561 41.5738 227.566 41.4452 227.566 41.3115C227.566 41.183 227.566 41.0544 227.566 40.9259C227.566 40.8693 227.586 40.8436 227.643 40.8487C227.879 40.8487 228.12 40.8487 228.356 40.859C228.598 40.8744 228.726 41.0184 228.741 41.2704C228.757 41.5223 228.628 41.7332 228.403 41.764H228.397Z" fill="black"/>
<path d="M26.8133 26.888C22.3674 24.5432 20.3498 23.1035 20.3498 19.8742C20.3498 17.0513 22.0029 14.9173 25.1807 14.727C25.2167 14.727 25.2577 14.7219 25.2937 14.7219C25.3142 14.7219 25.3347 14.7219 25.3553 14.7219C25.6222 14.7116 26.1356 14.6962 26.4539 14.7116C26.88 14.727 27.4396 14.7682 28.0454 14.8916C29.6728 15.2155 31.6699 16.0794 32.4605 18.3419C32.4605 18.3419 32.7942 19.1544 33.0765 20.1313C33.0765 20.1313 33.1073 20.229 33.1535 20.3113C33.1535 20.3113 33.1638 20.3267 33.1689 20.337C33.1843 20.3576 33.1997 20.3833 33.2151 20.3987C33.2254 20.4039 33.2305 20.4142 33.2408 20.4193C33.2408 20.4193 33.2665 20.4399 33.2767 20.445C33.3024 20.4553 33.3281 20.4656 33.3589 20.4707C33.4 20.4759 33.4359 20.481 33.477 20.4759H33.4924C33.5283 20.4707 33.5642 20.4604 33.6002 20.4553C33.8004 20.4039 33.8825 20.3216 33.9031 20.301C33.9801 20.2085 34.052 20.0542 34.0571 19.7817C34.0571 19.5606 34.0417 19.2675 34.016 18.9281C33.8877 17.91 33.8107 17.1849 33.7491 16.6502C33.7337 16.5062 33.7183 16.3776 33.6977 16.2594C33.6977 16.2337 33.6926 16.2131 33.6875 16.1925C33.6721 16.0897 33.6618 15.9971 33.6412 15.9149C33.5283 15.3235 33.3281 15.0356 32.789 14.6808C32.3013 14.3619 31.3567 14.1614 30.9255 14.0791C29.8936 13.9146 28.9335 13.8169 28.0403 13.7655C24.3696 13.5546 21.8489 14.218 20.1496 15.087C19.7081 15.3184 19.2974 15.5703 18.9175 15.8429C18.7275 15.9766 18.5581 16.1257 18.3887 16.2748C18.0858 16.5422 17.8342 16.7993 17.634 17.0358C16.8383 18.054 15.4265 20.3987 16.1298 23.5508C17.0847 27.8393 20.5449 29.1711 24.693 31.6239C28.451 33.8452 30.7868 35.8609 30.525 39.6455C30.2889 43.0033 28.0967 44.3505 25.997 44.7464C25.9046 44.7618 25.8019 44.7721 25.7095 44.7876C25.3347 44.8441 24.9497 44.8853 24.5287 44.8853C20.0931 44.8853 17.3414 42.2114 15.9758 39.0901C15.9758 39.0901 15.945 39.013 15.9039 38.9153C15.678 38.4063 15.5599 38.432 15.2365 38.5554C15.2211 38.5605 15.1646 38.5862 15.1184 38.6222L15.103 38.6325L15.0928 38.6428C15.0055 38.7199 14.8926 38.869 14.872 39.121C14.8617 39.2907 14.8823 39.4398 14.8823 39.4501C15.026 40.4734 15.3495 42.6587 15.524 43.2192C15.7499 43.9545 15.9244 44.7413 17.2746 45.0601C19.3282 45.5434 21.4895 45.9394 23.7073 45.9394C30.5148 45.9394 35.5254 42.0571 35.5254 36.7505C35.5254 31.4439 31.2078 29.2071 26.7979 26.8777L26.8133 26.888Z" fill="black"/>
<path d="M191.198 38.823V38.679C191.198 38.679 191.188 38.6584 191.188 38.6481C191.178 38.571 191.152 38.5093 191.137 38.4785C191.085 38.3653 190.983 38.2111 190.808 38.1751C190.623 38.1339 190.495 38.1956 190.382 38.391C190.362 38.427 190.346 38.463 190.341 38.4836L190.331 38.5145C190.243 38.7407 190.007 39.3577 189.797 39.7588C189.325 40.6998 188.457 42.1139 187.102 43.2092L187.081 43.2246C186.814 43.4354 186.532 43.6359 186.229 43.8211C183.857 45.2197 181.095 44.8906 179.925 44.6592C174.092 43.456 170.709 37.3986 170.709 29.1096C170.709 22.5278 173.04 16.8355 178.184 15.2877C178.184 15.2877 178.235 15.2723 178.328 15.2466L178.364 15.2363C178.389 15.2312 178.42 15.2209 178.451 15.2106C178.923 15.0821 179.416 14.9895 179.93 14.9381C181.172 14.7838 182.938 14.753 184.761 15.3237C185.12 15.4317 185.469 15.5603 185.798 15.7145C185.926 15.7711 186.044 15.8328 186.162 15.8945L186.193 15.9099C186.45 16.0385 186.665 16.167 186.84 16.2904C187.954 17.0309 188.693 18.0079 189.273 19.3037C189.314 19.4117 189.36 19.5248 189.396 19.6379C189.396 19.6379 189.74 20.4709 190.028 21.4736C190.028 21.4736 190.028 21.4839 190.033 21.4891C190.038 21.5096 190.043 21.5302 190.048 21.5456C190.048 21.5611 190.059 21.5713 190.069 21.5816C190.079 21.5919 190.084 21.5971 190.089 21.6125C190.105 21.6433 190.12 21.669 190.141 21.6896C190.161 21.7102 190.187 21.7307 190.218 21.741C190.243 21.7513 190.269 21.7616 190.3 21.7667C190.341 21.7719 190.377 21.777 190.418 21.7719H190.433C190.505 21.7616 190.572 21.7462 190.634 21.7205C190.644 21.7205 190.649 21.7205 190.659 21.7153C190.659 21.7153 190.664 21.7102 190.67 21.7102C190.69 21.705 190.711 21.6948 190.731 21.6896C190.752 21.6793 190.772 21.6639 190.788 21.6536C190.834 21.6176 190.885 21.5559 190.926 21.4582C190.962 21.3657 190.993 21.2423 190.998 21.0777C190.998 20.8566 190.983 20.5635 190.957 20.2241C190.849 19.3448 190.777 18.6866 190.716 18.1776C190.32 14.8867 189.643 15.0306 188.395 14.5421C187.209 14.0794 183.975 13.8068 183.631 13.776C183.215 13.7554 182.794 13.7451 182.363 13.7451C171.859 13.7451 165.17 20.3938 165.17 29.994C165.17 36.7044 168.456 43.0292 175.776 45.2197C177.147 45.6054 180.885 46.3921 186.126 45.4871C186.126 45.4871 188.508 45.1117 189.704 44.5204C189.74 44.4998 189.771 44.4844 189.807 44.4638C190.613 44.0165 190.726 43.3531 190.865 42.7258C190.967 42.263 191.08 40.7615 191.157 39.6508C191.178 39.3783 191.193 39.1212 191.203 38.9207C191.203 38.9207 191.203 38.9207 191.203 38.9155C191.203 38.9104 191.203 38.8693 191.203 38.8075L191.198 38.823Z" fill="black"/>
<path d="M67.2229 64.3322H66.5195V57.3853H67.2229V64.3322Z" fill="black"/>
<path d="M71.5156 57.3853H73.5846C73.8464 57.3853 74.1082 57.411 74.3803 57.4675C74.6473 57.5241 74.8885 57.6166 75.099 57.7503C75.3095 57.884 75.4841 58.064 75.6175 58.2954C75.751 58.5268 75.8178 58.8096 75.8178 59.1593C75.8178 59.5244 75.7048 59.8432 75.4841 60.1157C75.2633 60.3882 74.9604 60.5682 74.5856 60.6505V60.671C75.0374 60.7225 75.4071 60.8973 75.7048 61.1955C76.0026 61.4938 76.1515 61.8948 76.1515 62.4091C76.1515 62.697 76.0899 62.9593 75.9718 63.2009C75.8537 63.4375 75.6791 63.6431 75.4584 63.8077C75.2376 63.9722 74.9655 64.1059 74.6472 64.1933C74.329 64.2808 73.9696 64.3322 73.5743 64.3322H71.5208V57.3853H71.5156ZM72.219 60.4294H73.641C73.8104 60.4294 73.985 60.4088 74.1544 60.3728C74.329 60.3317 74.4881 60.2648 74.6318 60.1723C74.7756 60.0797 74.8937 59.9511 74.981 59.7969C75.0682 59.6375 75.1144 59.4472 75.1144 59.2158C75.1144 58.9844 75.0682 58.8045 74.981 58.6502C74.8937 58.4959 74.7756 58.3725 74.6216 58.2748C74.4727 58.1771 74.293 58.1051 74.0928 58.064C73.8926 58.0229 73.677 58.0023 73.4459 58.0023H72.219V60.4345V60.4294ZM72.219 63.7254H73.5332C73.7899 63.7254 74.0312 63.6997 74.2622 63.6534C74.4932 63.602 74.6986 63.5249 74.868 63.4169C75.0426 63.3089 75.1812 63.1701 75.2838 62.9953C75.3865 62.8204 75.443 62.6147 75.443 62.3731C75.443 61.9154 75.289 61.5709 74.9758 61.3498C74.6678 61.1235 74.2263 61.0104 73.6564 61.0104H72.2138V63.7306L72.219 63.7254Z" fill="black"/>
<path d="M78.4514 64.3322H77.748V57.3853H79.7862C80.125 57.3853 80.4433 57.4161 80.7308 57.483C81.0234 57.5498 81.275 57.6526 81.4855 57.8018C81.696 57.9509 81.8602 58.1411 81.9783 58.3777C82.0964 58.6142 82.1529 58.9022 82.1529 59.2415C82.1529 59.4986 82.1067 59.73 82.0142 59.9357C81.9218 60.1414 81.7986 60.3265 81.6395 60.4808C81.4803 60.635 81.2955 60.7584 81.0799 60.851C80.8643 60.9436 80.6281 61.0001 80.3766 61.0258L82.4044 64.3322H81.5419L79.6219 61.0824H78.4462V64.3322H78.4514ZM78.4514 60.4756H79.6784C80.2482 60.4756 80.6846 60.3728 80.9926 60.1671C81.3006 59.9614 81.4547 59.6529 81.4547 59.2415C81.4547 59.0101 81.4136 58.8199 81.3263 58.6605C81.239 58.5011 81.1261 58.3777 80.9721 58.28C80.8232 58.1823 80.6384 58.1103 80.4228 58.064C80.2071 58.0177 79.971 57.9972 79.7092 57.9972H78.4565V60.4808L78.4514 60.4756Z" fill="black"/>
<path d="M84.3178 63.7049H88.0296V64.3322H83.6094V57.3853H87.9115V58.0126H84.3178V60.3985H87.6805V61.0258H84.3178V63.7049Z" fill="black"/>
<path d="M89.3651 64.3322H88.5898L91.588 57.3853H92.2759L95.2535 64.3322H94.4681L93.7031 62.5068H90.1197L89.3651 64.3322ZM90.3815 61.8589H93.4362L91.9063 58.1669L90.3764 61.8589H90.3815Z" fill="black"/>
<path d="M97.9086 64.3322H97.2052V58.0126H94.8848V57.3853H100.234V58.0126H97.9137V64.3322H97.9086Z" fill="black"/>
<path d="M101.27 57.3853H101.973V60.3985H105.756V57.3853H106.46V64.3322H105.756V61.0464H101.973V64.3322H101.27V57.3853Z" fill="black"/>
<path d="M117.611 60.8562C117.611 61.3858 117.519 61.8743 117.339 62.3165C117.154 62.7639 116.903 63.1444 116.579 63.4683C116.256 63.7923 115.876 64.0443 115.434 64.2294C114.993 64.4145 114.516 64.5019 113.997 64.5019C113.479 64.5019 113.001 64.4093 112.56 64.2294C112.118 64.0494 111.738 63.7923 111.415 63.4683C111.091 63.1444 110.84 62.7587 110.655 62.3165C110.47 61.8692 110.383 61.3858 110.383 60.8562C110.383 60.3265 110.475 59.838 110.655 59.3958C110.84 58.9536 111.091 58.568 111.415 58.244C111.738 57.9201 112.118 57.6681 112.56 57.483C113.001 57.2979 113.479 57.2104 113.997 57.2104C114.516 57.2104 114.993 57.303 115.434 57.483C115.876 57.6681 116.256 57.9201 116.579 58.244C116.903 58.568 117.154 58.9536 117.339 59.3958C117.524 59.8432 117.611 60.3265 117.611 60.8562ZM116.867 60.8562C116.867 60.4499 116.8 60.0643 116.672 59.6992C116.543 59.3341 116.353 59.0102 116.102 58.7325C115.855 58.4548 115.553 58.2337 115.193 58.0692C114.839 57.9046 114.439 57.8224 113.992 57.8224C113.545 57.8224 113.15 57.9046 112.791 58.0692C112.436 58.2337 112.133 58.4548 111.882 58.7325C111.635 59.0102 111.446 59.3341 111.312 59.6992C111.184 60.0643 111.117 60.4499 111.117 60.8562C111.117 61.2624 111.184 61.6481 111.312 62.0131C111.44 62.3782 111.63 62.697 111.882 62.9747C112.128 63.2472 112.431 63.4683 112.791 63.6329C113.145 63.7974 113.545 63.8797 113.992 63.8797C114.439 63.8797 114.834 63.7974 115.193 63.6329C115.547 63.4683 115.85 63.2524 116.102 62.9747C116.348 62.7022 116.538 62.3782 116.672 62.0131C116.8 61.6481 116.867 61.2624 116.867 60.8562Z" fill="black"/>
<path d="M119.787 64.3322H119.084V57.3853H123.268V58.0126H119.792V60.4191H123.027V61.0464H119.792V64.3322H119.787Z" fill="black"/>
<path d="M133.896 60.8562C133.896 61.3858 133.804 61.8743 133.624 62.3165C133.439 62.7639 133.188 63.1444 132.864 63.4683C132.541 63.7923 132.161 64.0443 131.72 64.2294C131.278 64.4145 130.801 64.5019 130.282 64.5019C129.764 64.5019 129.286 64.4093 128.845 64.2294C128.403 64.0494 128.023 63.7923 127.7 63.4683C127.376 63.1444 127.125 62.7587 126.94 62.3165C126.755 61.8692 126.668 61.3858 126.668 60.8562C126.668 60.3265 126.76 59.838 126.94 59.3958C127.125 58.9536 127.376 58.568 127.7 58.244C128.023 57.9201 128.403 57.6681 128.845 57.483C129.286 57.2979 129.764 57.2104 130.282 57.2104C130.801 57.2104 131.278 57.303 131.72 57.483C132.161 57.6681 132.541 57.9201 132.864 58.244C133.188 58.568 133.439 58.9536 133.624 59.3958C133.809 59.8432 133.896 60.3265 133.896 60.8562ZM133.152 60.8562C133.152 60.4499 133.085 60.0643 132.957 59.6992C132.829 59.3341 132.639 59.0102 132.387 58.7325C132.141 58.4548 131.838 58.2337 131.478 58.0692C131.124 57.9046 130.724 57.8224 130.277 57.8224C129.83 57.8224 129.435 57.9046 129.076 58.0692C128.721 58.2337 128.419 58.4548 128.167 58.7325C127.921 59.0102 127.731 59.3341 127.597 59.6992C127.469 60.0643 127.402 60.4499 127.402 60.8562C127.402 61.2624 127.469 61.6481 127.597 62.0131C127.726 62.3782 127.915 62.697 128.167 62.9747C128.413 63.2472 128.716 63.4683 129.076 63.6329C129.43 63.7974 129.83 63.8797 130.277 63.8797C130.724 63.8797 131.119 63.7974 131.478 63.6329C131.833 63.4683 132.135 63.2524 132.387 62.9747C132.633 62.7022 132.823 62.3782 132.957 62.0131C133.085 61.6481 133.152 61.2624 133.152 60.8562Z" fill="black"/>
<path d="M135.363 57.3853H137.324C137.679 57.3853 137.997 57.4212 138.284 57.4984C138.572 57.5755 138.818 57.6886 139.024 57.8429C139.229 57.9972 139.388 58.1874 139.501 58.424C139.614 58.6553 139.665 58.9279 139.665 59.2415C139.665 59.5552 139.609 59.8277 139.496 60.0591C139.383 60.2905 139.224 60.4859 139.013 60.6402C138.803 60.7944 138.562 60.9076 138.269 60.9898C137.976 61.067 137.658 61.1081 137.304 61.1081H136.072V64.3373H135.368V57.3904L135.363 57.3853ZM136.067 60.5065H137.263C137.817 60.5065 138.238 60.3985 138.526 60.1825C138.813 59.9666 138.957 59.6529 138.957 59.2415C138.957 58.8302 138.808 58.4959 138.51 58.2954C138.213 58.0949 137.797 57.9972 137.263 57.9972H136.067V60.5116V60.5065Z" fill="black"/>
<path d="M143.604 64.507C143.08 64.507 142.654 64.4145 142.32 64.2396C141.986 64.0597 141.725 63.8334 141.524 63.5557C141.329 63.2832 141.191 62.9798 141.119 62.6559C141.042 62.3319 141.006 62.0285 141.006 61.7406V57.3853H141.709V61.6635C141.709 61.9463 141.74 62.2188 141.807 62.481C141.873 62.7484 141.976 62.9798 142.125 63.1855C142.274 63.3912 142.464 63.5609 142.71 63.6843C142.957 63.8077 143.249 63.8745 143.604 63.8745C143.958 63.8745 144.256 63.8128 144.497 63.6843C144.738 63.5557 144.933 63.3912 145.082 63.1855C145.231 62.9798 145.334 62.7433 145.4 62.481C145.467 62.2137 145.498 61.9411 145.498 61.6635V57.3853H146.201V61.7406C146.201 62.0285 146.165 62.3319 146.088 62.6559C146.011 62.9798 145.878 63.2781 145.683 63.5557C145.488 63.8283 145.221 64.0597 144.882 64.2396C144.543 64.4196 144.117 64.507 143.604 64.507Z" fill="black"/>
<path d="M148.711 63.7049H151.945V64.3322H148.008V57.3853H148.711V63.7049Z" fill="black"/>
<path d="M153.707 63.7049H157.418V64.3322H152.998V57.3853H157.3V58.0126H153.707V60.3985H157.069V61.0258H153.707V63.7049Z" fill="black"/>
<path d="M163.719 63.2989H163.74V57.3804H164.443V64.3273H163.56L159.525 58.3522H159.504V64.3273H158.801V57.3804H159.684L163.719 63.2989Z" fill="black"/>
<path d="M172.127 63.201C172.009 63.3758 171.865 63.5455 171.701 63.6997C171.536 63.8591 171.341 63.998 171.12 64.1162C170.9 64.2345 170.658 64.3322 170.397 64.3991C170.13 64.471 169.842 64.5019 169.529 64.5019C169.005 64.5019 168.523 64.4093 168.081 64.2294C167.635 64.0443 167.255 63.7923 166.936 63.4683C166.618 63.1444 166.367 62.7587 166.187 62.3165C166.007 61.8692 165.92 61.3858 165.92 60.8562C165.92 60.3265 166.012 59.838 166.192 59.3958C166.377 58.9536 166.628 58.568 166.952 58.244C167.275 57.9201 167.655 57.6681 168.097 57.483C168.538 57.2979 169.016 57.2104 169.534 57.2104C169.791 57.2104 170.037 57.2362 170.284 57.2927C170.53 57.3441 170.761 57.4213 170.977 57.519C171.192 57.6167 171.387 57.7298 171.567 57.8686C171.742 58.0023 171.891 58.1566 172.009 58.3263L171.418 58.7582C171.346 58.6451 171.249 58.5371 171.131 58.424C171.013 58.3109 170.869 58.2132 170.705 58.1309C170.54 58.0435 170.361 57.9766 170.171 57.9252C169.976 57.8738 169.77 57.8481 169.55 57.8481C169.098 57.8481 168.697 57.9303 168.338 58.0949C167.984 58.2594 167.681 58.4805 167.429 58.7531C167.183 59.0307 166.993 59.3495 166.859 59.7146C166.731 60.0797 166.664 60.4654 166.664 60.8665C166.664 61.2675 166.731 61.6532 166.865 62.0183C166.998 62.3834 167.188 62.7022 167.44 62.9798C167.686 63.2575 167.989 63.4786 168.348 63.638C168.702 63.8026 169.103 63.8848 169.55 63.8848C169.95 63.8848 170.325 63.8026 170.684 63.638C171.043 63.4735 171.346 63.2112 171.588 62.8513L172.137 63.2061L172.127 63.201Z" fill="black"/>
<path d="M174.046 63.7049H177.758V64.3322H173.338V57.3853H177.64V58.0126H174.046V60.3985H177.409V61.0258H174.046V63.7049Z" fill="black"/>
</svg>
