<svg width="378" height="121" viewBox="0 0 378 121" fill="none" xmlns="http://www.w3.org/2000/svg">
<path d="M249.636 59.7225C249.636 59.7225 249.636 59.6827 249.62 59.6188C249.588 59.4593 249.476 59.1482 249.15 59.0126C248.705 58.8371 248.506 58.9887 248.347 59.3636C248.188 59.7305 245.643 67.8669 239.447 68.0264C239.392 68.0264 239.344 68.0264 239.288 68.0264H239.273C239.217 68.0264 239.169 68.0344 239.113 68.0423C238.938 68.0423 238.795 68.0503 238.604 68.0503H232.99C228.377 68.0025 226.905 67.3244 226.905 62.2352V45.8988H235.153C239.026 45.8988 240.402 46.5848 241.261 48.5072C241.595 49.257 241.897 49.9191 242.128 50.8683C242.128 50.9002 242.239 51.3708 242.271 51.5942C242.327 51.9611 242.653 51.9851 242.923 51.9452C243.106 51.9212 243.201 51.8495 243.257 51.8016C243.329 51.7218 243.4 51.5782 243.424 51.3549C243.432 51.2193 243.44 51.0837 243.44 50.98C243.44 50.8763 243.44 50.8125 243.44 50.8125V38.3368C243.448 38.0815 243.353 37.9379 243.249 37.8422C243.217 37.8183 243.186 37.7943 243.146 37.7784C243.058 37.7385 242.979 37.7225 242.907 37.7066C242.891 37.7066 242.867 37.7066 242.851 37.7066C242.812 37.7066 242.772 37.7066 242.74 37.7066H242.732C242.732 37.7066 242.684 37.7066 242.661 37.7066C242.342 37.7545 242.287 38.0656 242.287 38.0656L242.231 38.3447L242.215 38.4165L242.199 38.5043C241.969 39.5971 241.722 40.323 241.356 41.1366C240.521 43.083 239.098 43.745 235.113 43.745H226.921V26.2918C226.921 24.6087 227.176 24.3375 228.949 24.3375H235.638C235.638 24.3375 236.393 24.3136 237.404 24.3614C237.459 24.3614 237.515 24.3614 237.571 24.3694H237.594C238.533 24.4252 239.646 24.5449 240.593 24.8161C240.903 24.9038 241.197 25.0075 241.46 25.1272C241.666 25.2309 241.897 25.3745 242.152 25.5659C243.098 26.2758 244.323 27.6319 245.373 30.2563V30.2802C245.452 30.4477 245.516 30.6152 245.579 30.7907L246.232 32.5057C246.375 32.8567 246.494 33.1199 246.629 33.2715C246.685 33.3353 246.741 33.3752 246.796 33.3911C246.916 33.431 247.059 33.3912 247.098 33.3672C247.425 33.2396 247.528 32.9285 247.568 32.769C247.568 32.7371 247.584 32.7051 247.584 32.6653C247.6 32.402 247.568 32.1707 247.568 32.1547C247.568 32.1547 246.605 25.2788 246.574 25.0873C246.2 22.8698 244.378 22.5666 243.583 22.4709C242.517 22.3433 238.278 22.2157 237.396 22.1997H214.22C214.124 22.1997 214.005 22.1997 213.886 22.2157C213.663 22.2396 213.528 22.3114 213.441 22.3832C213.345 22.4629 213.305 22.6305 213.297 22.7182C213.258 22.9974 213.281 23.3165 213.647 23.3803C213.703 23.3882 213.782 23.4042 213.846 23.4122L213.934 23.4281C215.071 23.6036 215.938 23.803 216.614 24.0902C218.634 24.9278 218.793 26.571 218.793 31.1257V61.3897C218.793 67.5478 218.316 68.162 212.287 68.9916C211.858 69.0713 211.921 69.542 211.993 69.8291C212.025 69.9328 212.16 70.1083 212.55 70.1482C212.653 70.1482 212.757 70.1562 212.852 70.1642H235.733L238.35 70.1881C238.7 70.1881 239.074 70.1881 239.455 70.1801C241.81 70.1482 244.649 70.0286 246.073 69.6457C246.136 69.6297 246.192 69.6058 246.263 69.5898C246.415 69.542 246.55 69.4861 246.653 69.4303C246.685 69.4144 246.709 69.3984 246.741 69.3824C246.764 69.3665 246.796 69.3585 246.82 69.3426C246.836 69.3346 246.82 69.3266 246.836 69.3107C247.003 69.207 247.17 69.0953 247.345 68.9198C247.417 68.856 247.496 68.7603 247.568 68.6486C248.538 67.1569 249.429 61.5891 249.453 61.4455C249.516 60.9909 249.58 60.5761 249.628 60.241C249.628 60.241 249.659 59.9858 249.644 59.7225H249.636Z" fill="white"/>
<path d="M109.85 68.9992C109.85 68.9992 109.779 68.9833 109.739 68.9833L109.635 68.9673L109.548 68.9514C108.832 68.8397 108.228 68.7201 107.703 68.5765H107.663C107.663 68.5765 107.592 68.5446 107.552 68.5366C107.488 68.5206 107.432 68.5047 107.377 68.4807C107.337 68.4648 107.297 68.4568 107.257 68.4409C107.194 68.4169 107.138 68.401 107.083 68.377C107.059 68.3691 107.035 68.3611 107.011 68.3531C106.78 68.2654 106.581 68.1697 106.414 68.0819C106.255 68.0021 106.112 67.9144 105.977 67.8187C105.961 67.8107 105.945 67.7947 105.929 67.7868L105.913 67.7708C105.754 67.6591 105.683 67.5794 105.683 67.5794C104.601 66.5823 104.426 64.8354 104.426 61.2219V31.2052C104.426 26.3314 104.704 24.752 107.162 23.9383C107.774 23.7309 108.522 23.5714 109.445 23.4278L109.532 23.4119C109.596 23.4039 109.675 23.3879 109.731 23.3799C110.144 23.3161 110.121 22.9093 110.057 22.6222C110.041 22.5264 109.993 22.4546 109.97 22.4227C109.89 22.335 109.747 22.2472 109.484 22.2153C109.365 22.2074 109.246 22.1994 109.15 22.1994H92.3452C92.3452 22.1994 92.2736 22.1994 92.1782 22.1994C92.0748 22.1994 91.9396 22.1994 91.8044 22.2153C91.5658 22.2393 91.4226 22.319 91.3431 22.3988C91.2715 22.4706 91.2397 22.5902 91.2238 22.6541C91.1681 22.9412 91.1681 23.3082 91.5578 23.372C91.6135 23.3799 91.6931 23.3959 91.7567 23.4039L91.8442 23.4198C92.5361 23.5315 93.1326 23.6432 93.6416 23.7868C93.6416 23.7868 94.5483 23.9782 95.2799 24.5047C95.2799 24.5047 95.3197 24.5366 95.3436 24.5525C95.3595 24.5685 95.3754 24.5765 95.3913 24.5924C96.6558 25.5815 96.8626 27.3604 96.8626 31.1972V43.0747H75.1822V31.1972C75.1822 26.6106 75.4765 24.9833 77.4807 24.1298C78.1646 23.8107 79.0713 23.6033 80.2643 23.4198L80.3518 23.4039C80.4154 23.3959 80.4949 23.3799 80.5506 23.372C80.8528 23.3241 80.9244 23.0928 80.9165 22.8615C80.9165 22.8216 80.9165 22.7817 80.9085 22.7498V22.6939C80.9085 22.6939 80.8846 22.6222 80.8767 22.5902C80.8608 22.5344 80.8449 22.4945 80.8369 22.4706C80.7812 22.3669 80.6381 22.2393 80.312 22.2074C80.1927 22.1994 80.0734 22.1914 79.978 22.1914H62.9263C62.8229 22.1914 62.7036 22.1914 62.5764 22.2074C62.4332 22.2233 62.3219 22.2552 62.2423 22.3031C62.2423 22.3031 62.2026 22.327 62.1867 22.343C62.0753 22.4227 62.0276 22.5583 62.0037 22.662C61.9481 22.9492 61.9481 23.3161 62.3457 23.3799C62.4014 23.3879 62.4809 23.4039 62.5445 23.4119L62.632 23.4278C63.5864 23.5794 64.3499 23.7389 64.9703 23.9623C64.9703 23.9623 65.5827 24.1617 65.9247 24.409C65.9326 24.409 65.9406 24.4249 65.9485 24.4249C67.4199 25.3343 67.6505 27.0333 67.6505 31.2132V61.2219C67.6505 65.6729 67.4119 67.372 65.519 68.2414C64.8351 68.5605 63.9284 68.7599 62.7354 68.9514L62.6479 68.9673C62.5843 68.9753 62.5048 68.9913 62.4491 68.9992C61.9958 69.071 62.0674 69.5496 62.1389 69.8368C62.1707 69.9405 62.306 70.116 62.6957 70.1559C62.8309 70.1638 62.9661 70.1718 63.0695 70.1718C63.1729 70.1718 63.2365 70.1718 63.2365 70.1718H79.803C79.803 70.1718 79.8746 70.1718 79.97 70.1718C80.0734 70.1718 80.2086 70.1718 80.3438 70.1559C80.7335 70.116 80.8608 69.9325 80.9005 69.8368C80.9721 69.5576 81.0358 69.1029 80.6222 69.0072C80.5108 68.9913 80.4074 68.9673 80.3041 68.9514H80.2961C79.4531 68.8158 78.7611 68.6722 78.1806 68.4967C78.1567 68.4967 78.1408 68.4887 78.1169 68.4807H78.0931C78.0931 68.4807 78.0294 68.4488 78.0056 68.4409C77.9499 68.4249 77.8942 68.401 77.8386 68.385C77.7988 68.3691 77.767 68.3531 77.7272 68.3451C77.6556 68.3132 77.5841 68.2893 77.5204 68.2574H77.5125C77.2341 68.1298 77.0114 68.0021 76.8365 67.8825H76.8285C76.5024 67.6591 76.3672 67.4916 76.3672 67.4916C75.3731 66.4626 75.1981 64.6997 75.1981 61.2378V45.364H96.8785V61.2378C96.8785 65.6889 96.6877 67.364 94.6675 68.2574C94.5085 68.3292 94.3415 68.401 94.1585 68.4568C93.7927 68.5844 93.3871 68.6881 92.9178 68.7839C92.6872 68.8317 92.4407 68.8796 92.1782 68.9195C91.9794 68.9514 91.7805 68.9913 91.5658 69.0232C91.1522 69.1109 91.2159 69.5736 91.2874 69.8528C91.3192 69.9565 91.4545 70.1319 91.8442 70.1718C91.9794 70.1798 92.1146 70.1878 92.218 70.1878C92.2498 70.1878 92.2657 70.1878 92.2895 70.1878H109.246C109.341 70.1878 109.468 70.1878 109.596 70.1718C109.985 70.1319 110.113 69.9485 110.152 69.8528C110.224 69.5656 110.296 69.095 109.858 69.0152L109.85 68.9992Z" fill="white"/>
<path d="M209.638 68.7121C209.638 68.7121 209.622 68.6722 209.607 68.6562C209.527 68.5685 209.273 68.5126 208.398 68.4807C207.316 68.4329 206.529 68.042 206.529 68.042C205.622 67.6671 204.898 67.1566 204.898 67.1566C204.015 66.5264 203.045 65.3698 202.361 64.4604L201.979 63.918C201.741 63.5989 201.502 63.2559 201.256 62.889L201.192 62.8013C200.484 61.7403 199.665 60.3923 198.234 58.1269C196.126 54.8085 192.404 48.4351 191.195 46.2574C195.466 44.4227 200.564 40.7933 200.564 33.8295C200.564 29.9847 198.87 26.8578 196.126 24.9913C193.239 22.9253 189.453 22.2153 183.783 22.2153H165.967C165.872 22.2153 165.745 22.2153 165.625 22.2313C165.236 22.2712 165.108 22.4546 165.069 22.5504C164.997 22.8375 164.925 23.3161 165.379 23.3879L165.578 23.4198L165.665 23.4358C166.285 23.5315 166.818 23.6352 167.296 23.7549H167.311C168.29 23.9862 168.958 24.3451 169.419 24.7121C169.443 24.736 169.467 24.752 169.499 24.7759C169.713 24.9593 169.88 25.1508 170.008 25.3263C170.008 25.3263 170.556 25.9006 170.676 27.3923C170.676 27.4082 170.676 27.4162 170.676 27.4322C170.795 28.3415 170.827 29.4822 170.827 30.926V61.3575C170.827 65.1145 170.628 66.7657 169.22 67.7229C169.22 67.7229 169.133 67.7788 168.99 67.8665C168.974 67.8745 168.95 67.8905 168.926 67.9064C168.52 68.1377 167.709 68.5286 166.627 68.728C166.262 68.8078 165.856 68.8796 165.411 68.9514L165.323 68.9673C165.26 68.9753 165.18 68.9913 165.124 68.9992C164.703 69.063 164.735 69.4858 164.798 69.781C164.814 69.8368 164.846 69.9166 164.902 69.9804C164.918 69.9963 164.933 70.0043 164.949 70.0203H164.957C165.045 70.092 165.172 70.1399 165.363 70.1638C165.498 70.1718 168.194 70.1798 168.194 70.1798H183.417C183.417 70.1798 183.488 70.1798 183.584 70.1798C183.687 70.1798 183.822 70.1798 183.958 70.1638C184.14 70.1399 184.268 70.0921 184.355 70.0362L184.371 70.0203C184.371 70.0203 184.387 70.0123 184.395 70.0043C184.49 69.9166 184.53 69.7889 184.53 69.7889C184.594 69.4938 184.634 69.071 184.204 69.0072C184.148 68.9992 184.069 68.9833 184.005 68.9753L183.918 68.9593C183.417 68.8796 182.971 68.7998 182.566 68.7041H182.534C182.534 68.7041 182.478 68.6881 182.454 68.6802C182.383 68.6642 182.311 68.6482 182.24 68.6243C181.397 68.4169 180.768 68.1218 180.363 67.8665C180.339 67.8506 180.315 67.8346 180.291 67.8187C180.22 67.7708 180.148 67.7309 180.084 67.6831C180.045 67.6591 180.013 67.6352 179.981 67.6113C179.846 67.5076 179.774 67.4358 179.774 67.4358C178.653 66.4147 178.494 64.7237 178.494 61.3575V48.0123H180.291C183.234 48.0123 184.228 48.7461 185.954 51.897C188.387 56.4198 191.099 61.174 193.629 64.947C195.681 67.9862 197.375 69.4858 201.669 70.1798C204.103 70.5547 206.266 70.2755 207.698 69.9644C208.278 69.8288 208.772 69.6613 209.09 69.5496C209.185 69.5097 209.599 69.3422 209.623 69.1588C209.646 68.9833 209.654 68.8317 209.623 68.7121H209.638ZM188.881 44.5264C187.711 45.5395 186.343 46.0181 184.602 46.2255C184.069 46.2893 183.512 46.3292 182.908 46.3531C182.319 46.377 181.699 46.385 181.039 46.385H178.51V27.145C178.51 25.3582 178.78 24.7918 179.345 24.401C179.472 24.3053 179.631 24.2255 179.838 24.1537C180.148 24.05 180.554 23.9702 181.063 23.9144C181.572 23.8586 182.192 23.8346 182.924 23.8346C187.839 23.8346 192.157 27.1131 192.157 35.4887C192.157 39.8201 191.251 42.5562 188.881 44.5264Z" fill="white"/>
<path d="M161.522 68.9837C161.466 68.9757 161.386 68.9598 161.323 68.9518L161.235 68.9358C160.877 68.88 160.551 68.8242 160.249 68.7603C160.209 68.7603 160.178 68.7444 160.138 68.7364C159.883 68.6806 159.645 68.6247 159.422 68.5689C158.921 68.4253 158.515 68.2498 158.356 68.178C156.368 67.2767 155.453 65.6175 153.704 60.7676C149.091 48.2839 144.565 35.9119 140.191 23.4521C140.191 23.4521 139.929 22.7661 139.897 22.7023C139.762 22.4391 139.507 22.3115 139.237 22.2476H139.197C139.086 22.2157 138.871 22.1918 138.529 22.1998C138.02 22.1998 137.479 22.5109 137.177 23.1331C137.161 23.173 137.145 23.2049 137.129 23.2368C137.129 23.2527 137.113 23.2767 137.105 23.2926C137.065 23.3883 137.042 23.4521 137.042 23.4521L122.519 60.7915C120.722 65.3862 119.648 67.1969 117.676 68.1461C117.485 68.2498 117.27 68.3376 117.039 68.4173C116.809 68.4971 116.554 68.5769 116.292 68.6487H116.268C115.862 68.7603 115.409 68.8561 114.9 68.9358L114.812 68.9518C114.749 68.9598 114.669 68.9757 114.614 68.9837C114.192 69.0475 114.224 69.4703 114.287 69.7654C114.303 69.8292 114.343 69.909 114.415 69.9808H114.431C114.431 69.9808 114.455 70.0127 114.47 70.0207C114.558 70.0765 114.677 70.1244 114.86 70.1483C114.995 70.1563 115.131 70.1643 115.234 70.1643C115.337 70.1643 115.401 70.1643 115.401 70.1643H128.627C128.627 70.1643 128.699 70.1643 128.794 70.1643C128.898 70.1643 129.033 70.1643 129.168 70.1483C129.558 70.1084 129.685 69.925 129.725 69.8292C129.796 69.5421 129.868 69.0635 129.414 68.9917C129.359 68.9837 129.279 68.9677 129.216 68.9598L129.128 68.9438C128.659 68.872 128.245 68.7922 127.856 68.7125C125.7 68.2977 124.873 67.5239 124.873 67.5239C123.688 66.6146 123.839 65.2027 124.794 62.355C125.756 59.3876 127.005 55.9177 128.389 52.0569H142.315C144.088 56.8829 145.552 61.2622 146.458 63.9583C147.126 65.9206 147.261 66.9975 146.379 67.7393H146.363L146.323 67.7792C146.212 67.8669 146.092 67.9467 145.949 68.0265L145.925 68.0424C145.846 68.0903 145.75 68.1381 145.647 68.194C145.385 68.3216 145.082 68.4413 144.74 68.5609C144.279 68.7205 143.746 68.8561 143.15 68.9518L143.062 68.9677C142.999 68.9757 142.919 68.9917 142.863 68.9996C142.474 69.0635 142.474 69.4144 142.521 69.7016C142.537 69.7734 142.577 69.909 142.672 69.9967C142.76 70.0685 142.895 70.1323 143.11 70.1563C143.245 70.1643 143.38 70.1722 143.484 70.1722H160.766C160.766 70.1722 161.243 70.1882 161.49 70.1164H161.514C161.553 70.0925 161.593 70.0765 161.625 70.0606C161.649 70.0526 161.665 70.0366 161.681 70.0287H161.697C161.824 69.9329 161.864 69.7973 161.879 69.7415C161.943 69.4543 161.959 69.0555 161.545 68.9917L161.522 68.9837ZM129.208 49.7676C130.544 46.2099 131.777 42.7241 133.073 39.1026C133.463 38.0178 133.86 36.917 134.266 35.8002C134.672 34.6835 135.093 33.5508 135.523 32.3941L141.495 49.7676H129.208Z" fill="white"/>
<path d="M323.664 21.3379C309.101 21.3379 300.4 33.9731 300.4 46.8477C300.4 60.5199 310.159 71.4322 323.329 71.4322C336.5 71.4322 346.251 61.2697 346.251 45.8267C346.251 31.4844 335.864 21.3379 323.664 21.3379ZM324.642 69.6454C315.002 69.6454 309.03 59.0282 309.03 44.9971C309.03 30.9659 314.963 23.1087 322.28 23.1087C331.426 23.1087 337.605 32.2821 337.605 47.8847C337.605 62.1711 332.094 69.6533 324.634 69.6533L324.642 69.6454Z" fill="white"/>
<path d="M354.26 60.1692C350.562 59.5311 347.428 62.8893 348.414 66.5666C348.939 68.505 350.617 70.0206 352.598 70.2918C356.129 70.7624 359.071 67.6754 358.332 64.1337C357.918 62.1315 356.256 60.5202 354.252 60.1772L354.26 60.1692ZM353.234 69.175C350.983 69.0873 349.321 67.2287 349.392 65.0989C349.464 62.8095 351.413 61.1025 353.647 61.2541C355.755 61.3977 357.433 63.3121 357.29 65.4499C357.147 67.6275 355.325 69.2229 353.242 69.175H353.234Z" fill="white"/>
<path d="M355.445 66.2875C355.358 65.6414 355.159 65.4021 354.515 65.2266C354.634 65.1787 354.73 65.1468 354.817 65.1149C355.819 64.724 355.795 63.368 355.199 62.8814C354.952 62.682 354.674 62.5543 354.372 62.5224C353.998 62.4825 353.616 62.4666 353.242 62.4586C352.67 62.4506 352.097 62.4586 351.524 62.4586C351.405 62.4586 351.357 62.4905 351.357 62.6022C351.357 62.6421 351.357 62.7139 351.357 62.7617C351.357 64.4289 351.357 66.104 351.357 67.7712C351.357 67.9626 351.421 68.0025 351.612 67.9786C351.851 67.9546 352.089 67.9546 352.328 67.9786C352.503 67.9945 352.558 67.9626 352.558 67.8031C352.558 67.1809 352.558 66.5667 352.558 65.9445C352.558 65.8488 352.638 65.769 352.733 65.769C353.02 65.777 353.314 65.7849 353.6 65.769C353.99 65.753 354.213 65.7849 354.308 66.3752C354.316 66.439 354.435 67.4122 354.491 67.827C354.507 67.9467 354.563 67.9865 354.682 67.9786C354.968 67.9706 355.262 67.9786 355.549 67.9786H355.604C355.692 67.9786 355.756 67.8908 355.724 67.8111C355.692 67.7233 355.676 67.6754 355.652 67.5478C355.581 67.133 355.525 66.7182 355.469 66.3034L355.445 66.2875ZM353.831 64.7878C353.433 64.8357 353.028 64.8197 352.63 64.8277C352.598 64.8277 352.542 64.748 352.542 64.7001C352.534 64.4927 352.542 64.2933 352.542 64.0859C352.542 63.8865 352.542 63.687 352.542 63.4876C352.542 63.3999 352.574 63.36 352.662 63.368C353.028 63.368 353.401 63.368 353.767 63.3839C354.141 63.4079 354.34 63.6312 354.364 64.0221C354.388 64.4129 354.189 64.74 353.839 64.7878H353.831Z" fill="white"/>
<path d="M41.5397 41.7109C34.6523 38.0734 31.5267 35.8399 31.5267 30.8305C31.5267 26.4513 34.0876 23.1409 39.0106 22.8457C39.0663 22.8457 39.1299 22.8378 39.1856 22.8378C39.2174 22.8378 39.2492 22.8378 39.281 22.8378C39.6946 22.8218 40.4899 22.7979 40.983 22.8218C41.6431 22.8457 42.51 22.9096 43.4485 23.101C45.9697 23.6035 49.0635 24.9436 50.2883 28.4534C50.2883 28.4534 50.8052 29.7138 51.2427 31.2294C51.2427 31.2294 51.2904 31.3809 51.362 31.5085C51.362 31.5085 51.3779 31.5325 51.3858 31.5484C51.4097 31.5803 51.4335 31.6202 51.4574 31.6441C51.4733 31.6521 51.4813 31.6681 51.4972 31.6761C51.4972 31.6761 51.5369 31.708 51.5528 31.7159C51.5926 31.7319 51.6324 31.7478 51.6801 31.7558C51.7437 31.7638 51.7994 31.7718 51.863 31.7638H51.8869C51.9425 31.7558 51.9982 31.7399 52.0539 31.7319C52.3641 31.6521 52.4913 31.5245 52.5231 31.4926C52.6424 31.349 52.7538 31.1097 52.7617 30.6869C52.7617 30.3439 52.7379 29.8893 52.6981 29.3628C52.4993 27.7834 52.38 26.6587 52.2845 25.8291C52.2607 25.6057 52.2368 25.4063 52.205 25.2228C52.205 25.1829 52.197 25.151 52.1891 25.1191C52.1652 24.9596 52.1493 24.816 52.1175 24.6884C51.9425 23.7711 51.6324 23.3244 50.7973 22.774C50.0417 22.2794 48.5783 21.9683 47.9103 21.8407C46.3117 21.5854 44.8244 21.4339 43.4406 21.3541C37.754 21.027 33.849 22.056 31.2165 23.4041C30.5325 23.7631 29.8963 24.1539 29.3077 24.5767C29.0134 24.7841 28.751 25.0154 28.4885 25.2468C28.0193 25.6616 27.6296 26.0604 27.3194 26.4273C26.0867 28.0067 23.8995 31.6441 24.9891 36.5339C26.4684 43.1866 31.8289 45.2526 38.2551 49.0575C44.0768 52.5035 47.6955 55.6304 47.2899 61.5013C46.9241 66.7101 43.528 68.8001 40.2752 69.4143C40.132 69.4382 39.973 69.4542 39.8298 69.4781C39.2492 69.5658 38.6527 69.6296 38.0006 69.6296C31.129 69.6296 26.8661 65.4817 24.7505 60.6398C24.7505 60.6398 24.7028 60.5201 24.6392 60.3686C24.2892 59.5789 24.1063 59.6188 23.6053 59.8102C23.5814 59.8182 23.4939 59.8581 23.4223 59.9139L23.3985 59.9299L23.3826 59.9458C23.2474 60.0655 23.0724 60.2968 23.0406 60.6877C23.0247 60.9509 23.0565 61.1822 23.0565 61.1982C23.2792 62.7856 23.7802 66.1757 24.0506 67.0452C24.4006 68.1858 24.671 69.4063 26.7627 69.9009C29.944 70.6507 33.2923 71.2649 36.7281 71.2649C47.274 71.2649 55.0363 65.2424 55.0363 57.0104C55.0363 48.7783 48.3477 45.3084 41.5159 41.6949L41.5397 41.7109Z" fill="white"/>
<path d="M296.202 60.2251V60.0017C296.202 60.0017 296.186 59.9698 296.186 59.9539C296.17 59.8342 296.13 59.7385 296.106 59.6906C296.027 59.5152 295.868 59.2759 295.597 59.22C295.311 59.1562 295.112 59.2519 294.937 59.555C294.905 59.6109 294.881 59.6667 294.873 59.6986L294.858 59.7465C294.722 60.0975 294.357 61.0547 294.03 61.6769C293.299 63.1366 291.955 65.3302 289.855 67.0293L289.823 67.0532C289.41 67.3803 288.972 67.6914 288.503 67.9785C284.829 70.1482 280.55 69.6377 278.736 69.2788C269.702 67.4122 264.46 58.0155 264.46 45.1569C264.46 34.9466 268.071 26.1163 276.04 23.7153C276.04 23.7153 276.12 23.6914 276.263 23.6515L276.319 23.6355C276.358 23.6276 276.406 23.6116 276.454 23.5957C277.186 23.3962 277.949 23.2526 278.744 23.1729C280.669 22.9336 283.405 22.8857 286.228 23.7711C286.785 23.9387 287.326 24.1381 287.835 24.3774C288.034 24.4651 288.217 24.5608 288.4 24.6566L288.447 24.6805C288.845 24.8799 289.179 25.0793 289.449 25.2708C291.175 26.4194 292.32 27.935 293.219 29.9452C293.283 30.1127 293.354 30.2882 293.41 30.4637C293.41 30.4637 293.943 31.7559 294.388 33.3114C294.388 33.3114 294.388 33.3273 294.396 33.3353C294.404 33.3672 294.412 33.3991 294.42 33.4231C294.42 33.447 294.436 33.4629 294.452 33.4789C294.468 33.4949 294.476 33.5028 294.484 33.5268C294.508 33.5746 294.531 33.6145 294.563 33.6464C294.595 33.6783 294.635 33.7102 294.683 33.7262C294.722 33.7421 294.762 33.7581 294.81 33.7661C294.873 33.774 294.929 33.782 294.993 33.774H295.017C295.128 33.7581 295.231 33.7342 295.327 33.6943C295.343 33.6943 295.351 33.6943 295.367 33.6863C295.367 33.6863 295.375 33.6783 295.382 33.6783C295.414 33.6703 295.446 33.6544 295.478 33.6464C295.51 33.6305 295.542 33.6065 295.565 33.5906C295.637 33.5347 295.717 33.439 295.78 33.2875C295.836 33.1439 295.884 32.9524 295.891 32.6972C295.891 32.3542 295.868 31.8995 295.828 31.373C295.661 30.009 295.549 28.988 295.454 28.1983C294.842 23.0931 293.792 23.3165 291.859 22.5587C290.022 21.8408 285.011 21.418 284.479 21.3701C283.834 21.3382 283.182 21.3223 282.514 21.3223C266.242 21.3223 255.879 31.6363 255.879 46.5289C255.879 56.9387 260.969 66.7501 272.31 70.1482C274.434 70.7465 280.224 71.9669 288.344 70.563C288.344 70.563 292.034 69.9807 293.887 69.0634C293.943 69.0315 293.991 69.0075 294.046 68.9756C295.295 68.2817 295.47 67.2526 295.685 66.2795C295.844 65.5616 296.019 63.2323 296.138 61.5094C296.17 61.0866 296.194 60.6877 296.21 60.3767C296.21 60.3767 296.21 60.3767 296.21 60.3687C296.21 60.3607 296.21 60.2969 296.21 60.2012L296.202 60.2251Z" fill="white"/>
<path d="M104.139 99.7976H103.05V89.021H104.139V99.7976Z" fill="white"/>
<path d="M110.788 89.021H113.993C114.399 89.021 114.804 89.0609 115.226 89.1486C115.64 89.2364 116.013 89.38 116.339 89.5873C116.666 89.7947 116.936 90.0739 117.143 90.4329C117.349 90.7918 117.453 91.2306 117.453 91.773C117.453 92.3393 117.278 92.8339 116.936 93.2567C116.594 93.6794 116.125 93.9586 115.544 94.0863V94.1182C116.244 94.1979 116.817 94.4692 117.278 94.9318C117.739 95.3945 117.97 96.0166 117.97 96.8143C117.97 97.261 117.874 97.6678 117.691 98.0428C117.509 98.4097 117.238 98.7288 116.896 98.984C116.554 99.2393 116.133 99.4467 115.64 99.5823C115.146 99.7179 114.59 99.7976 113.977 99.7976H110.796V89.021H110.788ZM111.878 93.7433H114.081C114.343 93.7433 114.614 93.7114 114.876 93.6555C115.146 93.5917 115.393 93.488 115.616 93.3444C115.838 93.2008 116.021 93.0014 116.157 92.7621C116.292 92.5148 116.363 92.2197 116.363 91.8607C116.363 91.5018 116.292 91.2226 116.157 90.9833C116.021 90.744 115.838 90.5525 115.6 90.401C115.369 90.2494 115.091 90.1377 114.781 90.0739C114.47 90.0101 114.136 89.9782 113.778 89.9782H111.878V93.7512V93.7433ZM111.878 98.8564H113.914C114.311 98.8564 114.685 98.8165 115.043 98.7447C115.401 98.6649 115.719 98.5453 115.982 98.3778C116.252 98.2103 116.467 97.9949 116.626 97.7237C116.785 97.4525 116.872 97.1334 116.872 96.7585C116.872 96.0486 116.634 95.5141 116.149 95.1711C115.671 94.8201 114.987 94.6446 114.105 94.6446H111.87V98.8644L111.878 98.8564Z" fill="white"/>
<path d="M121.533 99.7976H120.443V89.021H123.601C124.126 89.021 124.619 89.0689 125.064 89.1726C125.518 89.2763 125.907 89.4358 126.233 89.6671C126.559 89.8984 126.814 90.1936 126.997 90.5605C127.18 90.9275 127.267 91.3742 127.267 91.9006C127.267 92.2995 127.196 92.6584 127.052 92.9775C126.909 93.2966 126.718 93.5837 126.472 93.823C126.225 94.0623 125.939 94.2538 125.605 94.3974C125.271 94.5409 124.905 94.6287 124.515 94.6686L127.657 99.7976H126.321L123.346 94.7563H121.525V99.7976H121.533ZM121.533 93.8151H123.434C124.317 93.8151 124.993 93.6555 125.47 93.3364C125.947 93.0174 126.186 92.5388 126.186 91.9006C126.186 91.5417 126.122 91.2465 125.987 90.9992C125.852 90.752 125.677 90.5605 125.438 90.409C125.207 90.2574 124.921 90.1457 124.587 90.0739C124.253 90.0021 123.887 89.9702 123.481 89.9702H121.541V93.823L121.533 93.8151Z" fill="white"/>
<path d="M130.624 98.8245H136.374V99.7976H129.526V89.021H136.191V89.9942H130.624V93.6954H135.833V94.6686H130.624V98.8245Z" fill="white"/>
<path d="M138.441 99.7976H137.24L141.885 89.021H142.951L147.563 99.7976H146.347L145.162 96.9659H139.61L138.441 99.7976ZM140.016 95.9608H144.748L142.378 90.2335L140.008 95.9608H140.016Z" fill="white"/>
<path d="M151.676 99.7976H150.586V89.9942H146.991V89.021H155.278V89.9942H151.684V99.7976H151.676Z" fill="white"/>
<path d="M156.885 89.021H157.974V93.6954H163.836V89.021H164.925V99.7976H163.836V94.7005H157.974V99.7976H156.885V89.021Z" fill="white"/>
<path d="M182.2 94.4055C182.2 95.2272 182.057 95.985 181.779 96.671C181.492 97.3649 181.103 97.9552 180.601 98.4578C180.1 98.9603 179.512 99.3512 178.828 99.6383C178.144 99.9255 177.404 100.061 176.601 100.061C175.798 100.061 175.058 99.9175 174.374 99.6383C173.69 99.3591 173.102 98.9603 172.601 98.4578C172.1 97.9552 171.71 97.357 171.423 96.671C171.137 95.977 171.002 95.2272 171.002 94.4055C171.002 93.5839 171.145 92.8261 171.423 92.1401C171.71 91.4541 172.1 90.8559 172.601 90.3533C173.102 89.8508 173.69 89.4599 174.374 89.1728C175.058 88.8856 175.798 88.75 176.601 88.75C177.404 88.75 178.144 88.8936 178.828 89.1728C179.512 89.4599 180.1 89.8508 180.601 90.3533C181.103 90.8559 181.492 91.4541 181.779 92.1401C182.065 92.8341 182.2 93.5839 182.2 94.4055ZM181.047 94.4055C181.047 93.7754 180.943 93.1771 180.745 92.6108C180.546 92.0444 180.252 91.5419 179.862 91.1111C179.48 90.6804 179.011 90.3374 178.454 90.0821C177.905 89.8269 177.285 89.6992 176.593 89.6992C175.901 89.6992 175.289 89.8269 174.732 90.0821C174.183 90.3374 173.714 90.6804 173.324 91.1111C172.943 91.5419 172.648 92.0444 172.441 92.6108C172.243 93.1771 172.139 93.7754 172.139 94.4055C172.139 95.0357 172.243 95.634 172.441 96.2003C172.64 96.7667 172.935 97.2612 173.324 97.692C173.706 98.1148 174.175 98.4578 174.732 98.713C175.281 98.9683 175.901 99.0959 176.593 99.0959C177.285 99.0959 177.897 98.9683 178.454 98.713C179.003 98.4578 179.472 98.1227 179.862 97.692C180.244 97.2692 180.538 96.7667 180.745 96.2003C180.943 95.634 181.047 95.0357 181.047 94.4055Z" fill="white"/>
<path d="M185.572 99.7976H184.482V89.021H190.964V89.9942H185.58V93.7273H190.59V94.7005H185.58V99.7976H185.572Z" fill="white"/>
<path d="M207.428 94.4055C207.428 95.2272 207.284 95.985 207.006 96.671C206.72 97.3649 206.33 97.9552 205.829 98.4578C205.328 98.9603 204.739 99.3512 204.055 99.6383C203.371 99.9255 202.632 100.061 201.829 100.061C201.025 100.061 200.286 99.9175 199.602 99.6383C198.918 99.3591 198.329 98.9603 197.828 98.4578C197.327 97.9552 196.937 97.357 196.651 96.671C196.365 95.977 196.229 95.2272 196.229 94.4055C196.229 93.5839 196.373 92.8261 196.651 92.1401C196.937 91.4541 197.327 90.8559 197.828 90.3533C198.329 89.8508 198.918 89.4599 199.602 89.1728C200.286 88.8856 201.025 88.75 201.829 88.75C202.632 88.75 203.371 88.8936 204.055 89.1728C204.739 89.4599 205.328 89.8508 205.829 90.3533C206.33 90.8559 206.72 91.4541 207.006 92.1401C207.292 92.8341 207.428 93.5839 207.428 94.4055ZM206.274 94.4055C206.274 93.7754 206.171 93.1771 205.972 92.6108C205.773 92.0444 205.479 91.5419 205.089 91.1111C204.708 90.6804 204.238 90.3374 203.682 90.0821C203.133 89.8269 202.513 89.6992 201.821 89.6992C201.129 89.6992 200.516 89.8269 199.96 90.0821C199.411 90.3374 198.942 90.6804 198.552 91.1111C198.17 91.5419 197.876 92.0444 197.669 92.6108C197.47 93.1771 197.367 93.7754 197.367 94.4055C197.367 95.0357 197.47 95.634 197.669 96.2003C197.868 96.7667 198.162 97.2612 198.552 97.692C198.934 98.1148 199.403 98.4578 199.96 98.713C200.508 98.9683 201.129 99.0959 201.821 99.0959C202.513 99.0959 203.125 98.9683 203.682 98.713C204.23 98.4578 204.7 98.1227 205.089 97.692C205.471 97.2692 205.765 96.7667 205.972 96.2003C206.171 95.634 206.274 95.0357 206.274 94.4055Z" fill="white"/>
<path d="M209.702 89.021H212.74C213.289 89.021 213.782 89.0768 214.228 89.1965C214.673 89.3161 215.055 89.4916 215.373 89.7309C215.691 89.9702 215.937 90.2654 216.112 90.6323C216.287 90.9913 216.367 91.414 216.367 91.9006C216.367 92.3872 216.279 92.81 216.104 93.1689C215.929 93.5279 215.683 93.831 215.357 94.0703C215.031 94.3096 214.657 94.4851 214.204 94.6127C213.75 94.7324 213.257 94.7962 212.708 94.7962H210.8V99.8056H209.71V89.029L209.702 89.021ZM210.792 93.8629H212.645C213.504 93.8629 214.156 93.6954 214.601 93.3604C215.047 93.0253 215.269 92.5388 215.269 91.9006C215.269 91.2625 215.039 90.744 214.577 90.4329C214.116 90.1218 213.472 89.9702 212.645 89.9702H210.792V93.8709V93.8629Z" fill="white"/>
<path d="M222.467 100.069C221.655 100.069 220.995 99.9253 220.478 99.6541C219.961 99.3749 219.556 99.0239 219.246 98.5932C218.943 98.1704 218.729 97.6997 218.617 97.1972C218.498 96.6947 218.442 96.224 218.442 95.7773V89.021H219.532V95.6577C219.532 96.0964 219.58 96.5192 219.683 96.926C219.786 97.3408 219.946 97.6997 220.176 98.0188C220.407 98.3379 220.701 98.6011 221.083 98.7926C221.465 98.984 221.918 99.0877 222.467 99.0877C223.015 99.0877 223.477 98.992 223.851 98.7926C224.224 98.5932 224.527 98.3379 224.757 98.0188C224.988 97.6997 225.147 97.3328 225.25 96.926C225.354 96.5112 225.401 96.0884 225.401 95.6577V89.021H226.491V95.7773C226.491 96.224 226.435 96.6947 226.316 97.1972C226.197 97.6997 225.99 98.1624 225.688 98.5932C225.386 99.0159 224.972 99.3749 224.447 99.6541C223.922 99.9333 223.262 100.069 222.467 100.069Z" fill="white"/>
<path d="M230.381 98.8245H235.391V99.7976H229.291V89.021H230.381V98.8245Z" fill="white"/>
<path d="M238.119 98.8245H243.869V99.7976H237.021V89.021H243.686V89.9942H238.119V93.6954H243.328V94.6686H238.119V98.8245Z" fill="white"/>
<path d="M253.628 98.1945H253.66V89.0132H254.749V99.7898H253.381L247.13 90.5208H247.098V99.7898H246.009V89.0132H247.377L253.628 98.1945Z" fill="white"/>
<path d="M266.655 98.043C266.473 98.3142 266.25 98.5774 265.995 98.8167C265.741 99.064 265.439 99.2794 265.097 99.4628C264.755 99.6463 264.381 99.7979 263.975 99.9016C263.562 100.013 263.116 100.061 262.631 100.061C261.82 100.061 261.072 99.9175 260.388 99.6383C259.696 99.3512 259.108 98.9603 258.615 98.4578C258.122 97.9552 257.732 97.357 257.454 96.671C257.175 95.977 257.04 95.2272 257.04 94.4055C257.04 93.5839 257.183 92.8261 257.462 92.1401C257.748 91.4541 258.138 90.8559 258.639 90.3533C259.14 89.8508 259.728 89.4599 260.412 89.1728C261.096 88.8856 261.836 88.75 262.639 88.75C263.037 88.75 263.419 88.7899 263.8 88.8776C264.182 88.9574 264.54 89.077 264.874 89.2286C265.208 89.3802 265.51 89.5557 265.789 89.771C266.059 89.9784 266.29 90.2177 266.473 90.481L265.558 91.151C265.447 90.9755 265.295 90.808 265.113 90.6325C264.93 90.457 264.707 90.3055 264.452 90.1778C264.198 90.0422 263.92 89.9385 263.625 89.8588C263.323 89.779 263.005 89.7391 262.663 89.7391C261.963 89.7391 261.343 89.8668 260.786 90.122C260.237 90.3773 259.768 90.7203 259.378 91.143C258.997 91.5738 258.702 92.0683 258.495 92.6347C258.297 93.201 258.193 93.7993 258.193 94.4215C258.193 95.0437 258.297 95.6419 258.503 96.2083C258.71 96.7747 259.004 97.2692 259.394 97.7C259.776 98.1307 260.245 98.4737 260.802 98.721C261.351 98.9763 261.971 99.1039 262.663 99.1039C263.283 99.1039 263.864 98.9763 264.421 98.721C264.977 98.4657 265.447 98.0589 265.82 97.5005L266.671 98.0509L266.655 98.043Z" fill="white"/>
<path d="M269.63 98.8245H275.38V99.7976H268.532V89.021H275.197V89.9942H269.63V93.6954H274.839V94.6686H269.63V98.8245Z" fill="white"/>
</svg>
